<svg version="1.0" xmlns="http://www.w3.org/2000/svg"
 width="256.000000pt" height="256.000000pt" viewBox="0 0 256.000000 256.000000"
 preserveAspectRatio="xMidYMid meet">

<g transform="translate(0.000000,256.000000) scale(0.100000,-0.100000)"
fill="#FFFFFF" stroke="none">
<path d="M800 1960 l0 -200 -200 0 -200 0 0 -680 0 -680 680 0 680 0 0 200 0
200 200 0 200 0 0 680 0 680 -680 0 -680 0 0 -200z m1200 -480 l0 -520 -120 0
-120 0 0 400 0 400 -400 0 -400 0 0 120 0 120 520 0 520 0 0 -520z m-400 -400
l0 -520 -520 0 -520 0 0 520 0 520 520 0 520 0 0 -520z"/>
</g>
</svg>
